<svg width="20" height="20" viewBox="0 0 20 20" fill="none" xmlns="http://www.w3.org/2000/svg">
<g clip-path="url(#clip0_0_2099)">
<path d="M18.3282 9.99727H16.2621C15.898 9.99649 15.5436 10.115 15.2533 10.3347C14.9629 10.5543 14.7525 10.863 14.6542 11.2136L12.6964 18.1784C12.6837 18.2216 12.6574 18.2597 12.6214 18.2867C12.5853 18.3137 12.5415 18.3283 12.4964 18.3283C12.4513 18.3283 12.4075 18.3137 12.3714 18.2867C12.3354 18.2597 12.3091 18.2216 12.2965 18.1784L7.69771 1.81616C7.68509 1.7729 7.65878 1.73489 7.62273 1.70785C7.58668 1.68082 7.54283 1.6662 7.49777 1.6662C7.4527 1.6662 7.40885 1.68082 7.3728 1.70785C7.33675 1.73489 7.31044 1.7729 7.29782 1.81616L5.34002 8.78093C5.2421 9.13014 5.03292 9.43785 4.74423 9.65738C4.45555 9.8769 4.10312 9.99623 3.74045 9.99727H1.66602" stroke="#FF6467" stroke-opacity="0.8" stroke-width="1.66621" stroke-linecap="round" stroke-linejoin="round"/>
</g>
<defs>
<clipPath id="clip0_0_2099">
<rect width="19.9946" height="19.9946" fill="white"/>
</clipPath>
</defs>
</svg>
